<?xml version="1.0" encoding="utf-8"?>
<!-- Generator: Adobe Illustrator 15.0.0, SVG Export Plug-In . SVG Version: 6.00 Build 0)  -->
<!DOCTYPE svg PUBLIC "-//W3C//DTD SVG 1.1//EN" "http://www.w3.org/Graphics/SVG/1.1/DTD/svg11.dtd">
<svg version="1.1" id="Layer_1" xmlns="http://www.w3.org/2000/svg" xmlns:xlink="http://www.w3.org/1999/xlink" x="0px" y="0px"
	 width="1200.473px" height="26.27px" viewBox="0 0 1200.473 26.27" enable-background="new 0 0 1200.473 26.27"
	 xml:space="preserve">
<g>
	<g>
		<g>
			<path fill="#DFDFDF" d="M1166.225,23.477v2.793h-4.68V-0.001h5.031v9.462"/>
			<path fill="#DFDFDF" d="M1195.432,9.463V0h5.041v26.271h-4.682v-2.793"/>
			<path fill="#DFDFDF" d="M1166.272,26.27v-5.152l9.496-5.032l-9.496-4.969V5.995l13.598,7.923v4.373L1166.272,26.27z"/>
			<path fill="#DFDFDF" d="M1182.143,18.291v-4.373l13.643-7.923v5.121l-9.518,4.969l9.518,5.032v5.152L1182.143,18.291z"/>
		</g>
		<g>
			<path fill="#DFDFDF" d="M1123.205,23.477v2.793h-4.68V-0.001h5.031v9.462"/>
			<path fill="#DFDFDF" d="M1152.412,9.463V0h5.041v26.271h-4.682v-2.793"/>
			<path fill="#DFDFDF" d="M1123.252,26.27v-5.152l9.496-5.032l-9.496-4.969V5.995l13.598,7.923v4.373L1123.252,26.27z"/>
			<path fill="#DFDFDF" d="M1139.125,18.291v-4.373l13.641-7.923v5.121l-9.52,4.969l9.52,5.032v5.152L1139.125,18.291z"/>
		</g>
		<g>
			<path fill="#DFDFDF" d="M1080.182,23.477v2.793h-4.676V-0.001h5.031v9.462"/>
			<path fill="#DFDFDF" d="M1109.391,9.463V0h5.039v26.271h-4.678v-2.793"/>
			<path fill="#DFDFDF" d="M1080.231,26.27v-5.152l9.496-5.032l-9.496-4.969V5.995l13.598,7.923v4.373L1080.231,26.27z"/>
			<path fill="#DFDFDF" d="M1096.104,18.291v-4.373l13.641-7.923v5.121l-9.52,4.969l9.52,5.032v5.152L1096.104,18.291z"/>
		</g>
		<g>
			<path fill="#DFDFDF" d="M1037.164,23.477v2.793h-4.678V-0.001h5.031v9.462"/>
			<path fill="#DFDFDF" d="M1066.371,9.463V0h5.041v26.271h-4.682v-2.793"/>
			<path fill="#DFDFDF" d="M1037.213,26.27v-5.152l9.494-5.032l-9.494-4.969V5.995l13.596,7.923v4.373L1037.213,26.27z"/>
			<path fill="#DFDFDF" d="M1053.084,18.291v-4.373l13.641-7.923v5.121l-9.52,4.969l9.52,5.032v5.152L1053.084,18.291z"/>
		</g>
		<g>
			<path fill="#DFDFDF" d="M994.143,23.477v2.793h-4.68V-0.001h5.035v9.462"/>
			<path fill="#DFDFDF" d="M1023.35,9.463V0h5.041v26.271h-4.68v-2.793"/>
			<path fill="#DFDFDF" d="M994.192,26.27v-5.152l9.494-5.032l-9.494-4.969V5.995l13.598,7.923v4.373L994.192,26.27z"/>
			<path fill="#DFDFDF" d="M1010.065,18.291v-4.373l13.641-7.923v5.121l-9.52,4.969l9.52,5.032v5.152L1010.065,18.291z"/>
		</g>
		<g>
			<path fill="#DFDFDF" d="M951.123,23.477v2.793h-4.68V-0.001h5.031v9.462"/>
			<path fill="#DFDFDF" d="M980.332,9.463V0h5.039v26.271h-4.68v-2.793"/>
			<path fill="#DFDFDF" d="M951.172,26.27v-5.152l9.494-5.032l-9.494-4.969V5.995l13.594,7.923v4.373L951.172,26.27z"/>
			<path fill="#DFDFDF" d="M967.045,18.291v-4.373l13.639-7.923v5.121l-9.518,4.969l9.518,5.032v5.152L967.045,18.291z"/>
		</g>
		<g>
			<path fill="#DFDFDF" d="M908.104,23.477v2.793h-4.68V-0.001h5.031v9.462"/>
			<path fill="#DFDFDF" d="M937.311,9.463V0h5.041v26.271h-4.68v-2.793"/>
			<path fill="#DFDFDF" d="M908.151,26.27v-5.152l9.494-5.032l-9.494-4.969V5.995l13.6,7.923v4.373L908.151,26.27z"/>
			<path fill="#DFDFDF" d="M924.024,18.291v-4.373l13.641-7.923v5.121l-9.52,4.969l9.52,5.032v5.152L924.024,18.291z"/>
		</g>
		<g>
			<path fill="#DFDFDF" d="M865.084,23.477v2.793h-4.68V-0.001h5.031v9.462"/>
			<path fill="#DFDFDF" d="M894.291,9.463V0h5.041v26.271h-4.68v-2.793"/>
			<path fill="#DFDFDF" d="M865.131,26.27v-5.152l9.494-5.032l-9.494-4.969V5.995l13.598,7.923v4.373L865.131,26.27z"/>
			<path fill="#DFDFDF" d="M881.002,18.291v-4.373l13.643-7.923v5.121l-9.518,4.969l9.518,5.032v5.152L881.002,18.291z"/>
		</g>
		<g>
			<path fill="#DFDFDF" d="M822.063,23.477v2.793h-4.678V-0.001h5.031v9.462"/>
			<path fill="#DFDFDF" d="M851.272,9.463V0h5.039v26.271h-4.68v-2.793"/>
			<path fill="#DFDFDF" d="M822.112,26.27v-5.152l9.494-5.032l-9.494-4.969V5.995l13.596,7.923v4.373L822.112,26.27z"/>
			<path fill="#DFDFDF" d="M837.983,18.291v-4.373l13.643-7.923v5.121l-9.521,4.969l9.521,5.032v5.152L837.983,18.291z"/>
		</g>
		<g>
			<path fill="#DFDFDF" d="M779.043,23.477v2.793h-4.68V-0.001h5.033v9.462"/>
			<path fill="#DFDFDF" d="M808.25,9.463V0h5.039v26.271h-4.678v-2.793"/>
			<path fill="#DFDFDF" d="M779.092,26.27v-5.152l9.494-5.032l-9.494-4.969V5.995l13.596,7.923v4.373L779.092,26.27z"/>
			<path fill="#DFDFDF" d="M794.963,18.291v-4.373l13.639-7.923v5.121l-9.518,4.969l9.518,5.032v5.152L794.963,18.291z"/>
		</g>
		<g>
			<path fill="#DFDFDF" d="M736.024,23.477v2.793h-4.68V-0.001h5.031v9.462"/>
			<path fill="#DFDFDF" d="M765.229,9.463V0h5.041v26.271h-4.68v-2.793"/>
			<path fill="#DFDFDF" d="M736.073,26.27v-5.152l9.494-5.032l-9.494-4.969V5.995l13.596,7.923v4.373L736.073,26.27z"/>
			<path fill="#DFDFDF" d="M751.942,18.291v-4.373l13.641-7.923v5.121l-9.518,4.969l9.518,5.032v5.152L751.942,18.291z"/>
		</g>
		<g>
			<path fill="#DFDFDF" d="M693.004,23.477v2.793h-4.684V-0.001h5.035v9.462"/>
			<path fill="#DFDFDF" d="M722.211,9.463V0h5.041v26.271h-4.682v-2.793"/>
			<path fill="#DFDFDF" d="M693.049,26.27v-5.152l9.496-5.032l-9.496-4.969V5.995l13.598,7.923v4.373L693.049,26.27z"/>
			<path fill="#DFDFDF" d="M708.922,18.291v-4.373l13.641-7.923v5.121l-9.52,4.969l9.52,5.032v5.152L708.922,18.291z"/>
		</g>
		<g>
			<path fill="#DFDFDF" d="M649.983,23.477v2.793h-4.68V-0.001h5.031v9.462"/>
			<path fill="#DFDFDF" d="M679.19,9.463V0h5.039v26.271h-4.678v-2.793"/>
			<path fill="#DFDFDF" d="M650.03,26.27v-5.152l9.496-5.032l-9.496-4.969V5.995l13.598,7.923v4.373L650.03,26.27z"/>
			<path fill="#DFDFDF" d="M665.903,18.291v-4.373l13.641-7.923v5.121l-9.52,4.969l9.52,5.032v5.152L665.903,18.291z"/>
		</g>
		<g>
			<path fill="#DFDFDF" d="M606.961,23.477v2.793h-4.68V-0.001h5.031v9.462"/>
			<path fill="#DFDFDF" d="M636.17,9.463V0h5.039v26.271h-4.68v-2.793"/>
			<path fill="#DFDFDF" d="M607.01,26.27v-5.152l9.496-5.032l-9.496-4.969V5.995l13.598,7.923v4.373L607.01,26.27z"/>
			<path fill="#DFDFDF" d="M622.883,18.291v-4.373l13.639-7.923v5.121l-9.518,4.969l9.518,5.032v5.152L622.883,18.291z"/>
		</g>
		<g>
			<path fill="#DFDFDF" d="M563.941,23.477v2.793h-4.679V-0.001h5.032v9.462"/>
			<path fill="#DFDFDF" d="M593.149,9.463V0h5.04v26.271h-4.679v-2.793"/>
			<path fill="#DFDFDF" d="M563.99,26.27v-5.152l9.496-5.032l-9.496-4.969V5.995l13.598,7.923v4.373L563.99,26.27z"/>
			<path fill="#DFDFDF" d="M579.861,18.291v-4.373l13.643-7.923v5.121l-9.52,4.969l9.52,5.032v5.152L579.861,18.291z"/>
		</g>
		<g>
			<path fill="#DFDFDF" d="M520.922,23.477v2.793h-4.68V-0.001h5.032v9.462"/>
			<path fill="#DFDFDF" d="M550.129,9.463V0h5.041v26.271h-4.681v-2.793"/>
			<path fill="#DFDFDF" d="M520.969,26.27v-5.152l9.495-5.032l-9.495-4.969V5.995l13.596,7.923v4.373L520.969,26.27z"/>
			<path fill="#DFDFDF" d="M536.842,18.291v-4.373l13.642-7.923v5.121l-9.521,4.969l9.521,5.032v5.152L536.842,18.291z"/>
		</g>
		<g>
			<path fill="#DFDFDF" d="M477.9,23.477v2.793h-4.679V-0.001h5.032v9.462"/>
			<path fill="#DFDFDF" d="M507.107,9.463V0h5.041v26.271h-4.679v-2.793"/>
			<path fill="#DFDFDF" d="M477.949,26.27v-5.152l9.495-5.032l-9.495-4.969V5.995l13.597,7.923v4.373L477.949,26.27z"/>
			<path fill="#DFDFDF" d="M493.821,18.291v-4.373l13.642-7.923v5.121l-9.521,4.969l9.521,5.032v5.152L493.821,18.291z"/>
		</g>
		<g>
			<path fill="#DFDFDF" d="M434.882,23.477v2.793h-4.679V-0.001h5.031v9.462"/>
			<path fill="#DFDFDF" d="M464.088,9.463V0h5.041v26.271h-4.681v-2.793"/>
			<path fill="#DFDFDF" d="M434.928,26.27v-5.152l9.495-5.032l-9.495-4.969V5.995l13.597,7.923v4.373L434.928,26.27z"/>
			<path fill="#DFDFDF" d="M450.802,18.291v-4.373l13.64-7.923v5.121l-9.519,4.969l9.519,5.032v5.152L450.802,18.291z"/>
		</g>
		<g>
			<path fill="#DFDFDF" d="M391.861,23.477v2.793h-4.679V-0.001h5.032v9.462"/>
			<path fill="#DFDFDF" d="M421.068,9.463V0h5.04v26.271h-4.679v-2.793"/>
			<path fill="#DFDFDF" d="M391.91,26.27v-5.152l9.494-5.032l-9.494-4.969V5.995l13.596,7.923v4.373L391.91,26.27z"/>
			<path fill="#DFDFDF" d="M407.78,18.291v-4.373l13.642-7.923v5.121l-9.52,4.969l9.52,5.032v5.152L407.78,18.291z"/>
		</g>
		<g>
			<path fill="#DFDFDF" d="M348.841,23.477v2.793h-4.679V-0.001h5.032v9.462"/>
			<path fill="#DFDFDF" d="M378.049,9.463V0h5.04v26.271h-4.679v-2.793"/>
			<path fill="#DFDFDF" d="M348.889,26.27v-5.152l9.495-5.032l-9.495-4.969V5.995l13.596,7.923v4.373L348.889,26.27z"/>
			<path fill="#DFDFDF" d="M364.76,18.291v-4.373l13.641-7.923v5.121l-9.52,4.969l9.52,5.032v5.152L364.76,18.291z"/>
		</g>
		<g>
			<path fill="#DFDFDF" d="M305.821,23.477v2.793h-4.68V-0.001h5.032v9.462"/>
			<path fill="#DFDFDF" d="M335.027,9.463V0h5.041v26.271h-4.68v-2.793"/>
			<path fill="#DFDFDF" d="M305.869,26.27v-5.152l9.495-5.032l-9.495-4.969V5.995l13.597,7.923v4.373L305.869,26.27z"/>
			<path fill="#DFDFDF" d="M321.74,18.291v-4.373l13.642-7.923v5.121l-9.521,4.969l9.521,5.032v5.152L321.74,18.291z"/>
		</g>
		<g>
			<path fill="#DFDFDF" d="M262.801,23.477v2.793h-4.679V-0.001h5.032v9.462"/>
			<path fill="#DFDFDF" d="M292.008,9.463V0h5.041v26.271h-4.679v-2.793"/>
			<path fill="#DFDFDF" d="M262.848,26.27v-5.152l9.495-5.032l-9.495-4.969V5.995l13.598,7.923v4.373L262.848,26.27z"/>
			<path fill="#DFDFDF" d="M278.72,18.291v-4.373l13.642-7.923v5.121l-9.52,4.969l9.52,5.032v5.152L278.72,18.291z"/>
		</g>
		<g>
			<path fill="#DFDFDF" d="M219.78,23.477v2.793h-4.68V-0.001h5.033v9.462"/>
			<path fill="#DFDFDF" d="M248.988,9.463V0h5.04v26.271h-4.68v-2.793"/>
			<path fill="#DFDFDF" d="M219.829,26.27v-5.152l9.495-5.032l-9.495-4.969V5.995l13.597,7.923v4.373L219.829,26.27z"/>
			<path fill="#DFDFDF" d="M235.7,18.291v-4.373l13.641-7.923v5.121l-9.518,4.969l9.518,5.032v5.152L235.7,18.291z"/>
		</g>
		<g>
			<path fill="#DFDFDF" d="M176.76,23.477v2.793h-4.68V-0.001h5.033v9.462"/>
			<path fill="#DFDFDF" d="M205.968,9.463V0h5.04v26.271h-4.679v-2.793"/>
			<path fill="#DFDFDF" d="M176.808,26.27v-5.152l9.495-5.032l-9.495-4.969V5.995l13.597,7.923v4.373L176.808,26.27z"/>
			<path fill="#DFDFDF" d="M192.68,18.291v-4.373l13.642-7.923v5.121l-9.521,4.969l9.521,5.032v5.152L192.68,18.291z"/>
		</g>
		<g>
			<path fill="#DFDFDF" d="M133.74,23.477v2.793h-4.68V-0.001h5.032v9.462"/>
			<path fill="#DFDFDF" d="M162.947,9.463V0h5.041v26.271h-4.68v-2.793"/>
			<path fill="#DFDFDF" d="M133.789,26.27v-5.152l9.494-5.032l-9.494-4.969V5.995l13.596,7.923v4.373L133.789,26.27z"/>
			<path fill="#DFDFDF" d="M149.661,18.291v-4.373l13.641-7.923v5.121l-9.52,4.969l9.52,5.032v5.152L149.661,18.291z"/>
		</g>
		<g>
			<path fill="#DFDFDF" d="M90.719,23.477v2.793h-4.679V-0.001h5.032v9.462"/>
			<path fill="#DFDFDF" d="M119.927,9.463V0h5.04v26.271h-4.679v-2.793"/>
			<path fill="#DFDFDF" d="M90.768,26.27v-5.152l9.495-5.032l-9.495-4.969V5.995l13.597,7.923v4.373L90.768,26.27z"/>
			<path fill="#DFDFDF" d="M106.639,18.291v-4.373l13.643-7.923v5.121l-9.52,4.969l9.52,5.032v5.152L106.639,18.291z"/>
		</g>
		<g>
			<path fill="#DFDFDF" d="M47.701,23.477v2.793h-4.68V-0.001h5.032v9.462"/>
			<path fill="#DFDFDF" d="M76.907,9.463V0h5.04v26.271h-4.68v-2.793"/>
			<path fill="#DFDFDF" d="M47.748,26.27v-5.152l9.495-5.032l-9.495-4.969V5.995l13.597,7.923v4.373L47.748,26.27z"/>
			<path fill="#DFDFDF" d="M63.62,18.291v-4.373L77.26,5.995v5.121l-9.52,4.969l9.519,5.032v5.152L63.62,18.291z"/>
		</g>
		<g>
			<path fill="#DFDFDF" d="M4.68,23.477v2.793h-4.68V-0.001h5.033v9.462"/>
			<path fill="#DFDFDF" d="M33.886,9.463V0h5.041v26.271h-4.679v-2.793"/>
			<path fill="#DFDFDF" d="M4.728,26.27v-5.152l9.495-5.032l-9.495-4.969V5.995l13.597,7.923v4.373L4.728,26.27z"/>
			<path fill="#DFDFDF" d="M20.599,18.291v-4.373L34.24,5.995v5.121l-9.52,4.969l9.52,5.032v5.152L20.599,18.291z"/>
		</g>
	</g>
</g>
</svg>
